<?xml version="1.0" encoding="UTF-8" standalone="no"?>
<svg
   xmlns:dc="http://purl.org/dc/elements/1.1/"
   xmlns:cc="http://creativecommons.org/ns#"
   xmlns:rdf="http://www.w3.org/1999/02/22-rdf-syntax-ns#"
   xmlns:svg="http://www.w3.org/2000/svg"
   xmlns="http://www.w3.org/2000/svg"
   version="1.1"
   id="svg2"
   viewBox="0 0 399.99996 509.78525"
   height="143.87273mm"
   width="112.88889mm">
  <defs
     id="defs4" />
  <metadata
     id="metadata7">
    <rdf:RDF>
      <cc:Work
         rdf:about="">
        <dc:format>image/svg+xml</dc:format>
        <dc:type
           rdf:resource="http://purl.org/dc/dcmitype/StillImage" />
        <dc:title></dc:title>
      </cc:Work>
    </rdf:RDF>
  </metadata>
  <g
     transform="translate(-172.04723,-271.28847)"
     id="layer1">
    <g
       transform="translate(1008.9787,-152.55804)"
       id="g4188">
      <path
         style="fill:#0b5ed8;fill-opacity:1"
         d="m -649.43999,933.21423 c -7.153,-0.431 -14.1926,-1.2464 -20.5979,-2.3858 -3.7117,-0.6602 -6.0409,-1.1326 -12.7759,-2.5908 -6.6264,-1.4347 -20.8541,-5.6624 -24.5089,-7.2826 -0.8604,-0.3814 -4.1729,-1.7479 -7.3612,-3.0366 -6.7347,-2.7221 -18.188,-8.3767 -22.3174,-11.0183 -1.5746,-1.0072 -3.0009,-1.8313 -3.1698,-1.8313 -0.1687,0 -0.9426,-0.4377 -1.7198,-0.9727 -0.777,-0.535 -2.8208,-1.8701 -4.5417,-2.9669 -10.762,-6.8594 -21.4694,-15.646 -32.0701,-26.3169 -10.6328,-10.7033 -19.261,-21.2536 -25.7913,-31.5372 -1.0928,-1.7208 -2.4246,-3.7646 -2.9595,-4.5417 -0.535,-0.7771 -0.9727,-1.5325 -0.9727,-1.6787 0,-0.1463 -1.1525,-2.217 -2.5609,-4.6016 -3.387,-5.7342 -7.7268,-14.5882 -10.4383,-21.2955 -1.2069,-2.9854 -2.5056,-6.132 -2.8861,-6.9924 -1.622,-3.6684 -6.5133,-20.3505 -7.4048,-25.2545 -0.1267,-0.6969 -0.3363,-1.4388 -0.466,-1.6485 -0.2741,-0.4435 -1.6314,-7.4816 -2.1027,-10.9032 -0.1777,-1.2907 -0.4074,-2.816 -0.5104,-3.3896 -2.0631,-11.4907 -1.9857,-5.3877 -2.1653,-170.8405 l -0.1708,-157.28244 4.8359,-0.6243 c 11.7466,-1.51646 50.5178,-4.90198 52.6528,-4.59768 0.7736,0.11025 1.3156,0.0534 1.2045,-0.12639 -0.1111,-0.17978 6.5304,-0.73625 14.7589,-1.2366 8.2285,-0.50035 16.3689,-1.00204 18.0898,-1.11486 4.8147,-0.31566 17.0441,-0.93598 35.7203,-1.81185 46.0127,-2.15789 107.0194,-1.95698 158.7863,0.52293 19.2566,0.92249 49.87283,2.76856 60.22929,3.63163 3.29827,0.27487 10.33807,0.85768 15.64396,1.29512 12.54746,1.03446 29.05675,2.70906 34.09425,3.4583 l 3.984,0.59255 -0.15308,158.07019 -0.15313,158.0702 -1.13984,7.822 c -0.62696,4.3021 -1.4992,9.5819 -1.93831,11.733 -0.43914,2.151 -0.90429,4.4976 -1.03372,5.2146 -0.1294,0.7171 -1.06059,4.4716 -2.06931,8.3435 -4.26182,16.359 -10.40111,31.5744 -18.72616,46.4104 -2.01171,3.5851 -3.8104,6.6357 -3.99714,6.7791 -0.18666,0.1434 -0.46963,0.6157 -0.62873,1.0496 -0.30909,0.8433 -6.54214,10.3351 -8.2139,12.5085 -13.62783,17.7168 -26.80322,31.1227 -41.45068,42.1759 -1.7377,1.3114 -3.2378,2.566 -3.3334,2.788 -0.096,0.222 -0.3926,0.4036 -0.66,0.4036 -0.2674,0 -1.9438,1.0606 -3.7253,2.3569 -1.7815,1.2963 -3.55,2.2376 -3.9299,2.0918 -0.3799,-0.1458 -0.5598,-0.053 -0.3997,0.2059 0.1601,0.259 -0.5904,1.0066 -1.6677,1.6613 -1.0773,0.6546 -2.0761,1.32 -2.2195,1.4786 -0.2273,0.2513 -1.4109,0.9181 -5.9968,3.3789 -0.5736,0.3077 -1.3949,0.821 -1.8251,1.1406 -2.0148,1.4967 -15.0737,7.7232 -21.2284,10.1217 -2.2345,0.8707 -4.532,1.8045 -5.1056,2.0751 -2.0079,0.9469 -11.733,4.1109 -11.733,3.8172 0,-0.1631 -0.2933,-0.054 -0.6519,0.2426 -0.3585,0.2965 -2.5291,1.0066 -4.8235,1.578 -2.2945,0.5713 -5.6387,1.4271 -7.4316,1.9016 -1.7929,0.4745 -3.4942,0.718 -3.7806,0.541 -0.2864,-0.1771 -0.5208,-0.1141 -0.5208,0.1398 0,0.254 -3.2266,0.9762 -7.1701,1.605 -18.6325,2.9707 -30.5672,3.6527 -46.8016,2.6743 z m -12.3956,-2.3872 c -0.1733,-0.1733 -0.6231,-0.1918 -0.9995,-0.041 -0.416,0.1665 -0.2924,0.29 0.315,0.3151 0.5497,0.022 0.8577,-0.1006 0.6845,-0.274 z m -24.6321,-4.8936 c 0.1827,-0.2956 -0.027,-0.3831 -0.4907,-0.205 -0.9034,0.3467 -1.0687,0.7205 -0.3186,0.7205 0.2699,0 0.6341,-0.232 0.8093,-0.5155 z m 66.4905,-19.3579 c 17.7946,-1.7578 38.5784,-7.204 53.4503,-14.0061 11.9786,-5.4789 14.1168,-6.7295 14.1168,-8.2569 0,-0.5878 -0.1392,-0.9826 -0.3094,-0.8775 -0.1701,0.1052 -0.5984,-2.7867 -0.9519,-6.4263 -0.3534,-3.6395 -0.8676,-7.908 -1.1426,-9.4854 -0.2749,-1.5774 -1.0978,-7.2093 -1.8285,-12.5152 -1.538,-11.1686 -2.4392,-15.0381 -4.2218,-18.1282 -0.7055,-1.223 -1.1173,-2.4912 -0.9151,-2.8183 0.2275,-0.3682 0.1357,-0.4514 -0.2412,-0.2185 -0.3486,0.2155 -1.5352,-0.4168 -2.7769,-1.4797 -3.9572,-3.3872 -5.6662,-3.7799 -31.9744,-7.348 -12.8716,-1.7457 -25.8291,-3.3488 -27.2466,-3.3709 -0.3653,-0.01 -0.6519,-0.6579 -0.6519,-1.4833 l 0,-1.4732 16.0351,-1.9516 c 8.8193,-1.0734 17.3257,-2.1626 18.9031,-2.4205 1.5775,-0.2579 4.0414,-0.5917 5.4754,-0.7418 1.4341,-0.1501 3.6633,-0.4872 4.9539,-0.7491 1.2907,-0.262 3.5199,-0.6198 4.954,-0.7952 1.434,-0.1755 4.3431,-1.1865 6.4646,-2.2467 3.9338,-1.9658 5.7158,-3.7826 7.927,-8.0813 1.2692,-2.4672 3.4661,-15.953 6.2186,-38.1737 1.1699,-9.4441 2.2362,-17.3476 2.3695,-17.5634 0.5896,-0.954 -1.1016,-0.9296 -5.8672,0.085 -2.8154,0.5992 -6.7614,1.583 -8.7691,2.1862 -2.0076,0.6031 -3.8849,1.1612 -4.1717,1.2401 -1.9581,0.5386 -13.1267,4.8361 -17.2029,6.6193 -3.1024,1.3573 -24.8092,12.2721 -25.5573,12.8511 -0.7885,0.6102 -5.5482,3.1853 -12.5152,6.771 -3.4416,1.7713 -6.6095,3.4412 -7.0397,3.7109 -2.3893,1.498 -17.4292,8.2826 -24.6893,11.1377 -12.0127,4.7238 -28.317,9.6641 -29.494,8.9367 -0.2648,-0.1636 -0.5602,-0.083 -0.6564,0.1791 -0.1535,0.418 -3.1597,0.976 -14.4806,2.6877 -11.282,1.7057 -34.4614,1.4172 -44.62,-0.5554 -4.2154,-0.8186 -10.3666,-2.079 -11.2115,-2.2972 -0.4302,-0.1112 -2.3074,-0.5954 -4.1717,-1.0761 -9.5735,-2.4686 -21.1776,-6.8513 -29.9843,-11.3247 -4.2466,-2.1571 -9.928,-5.2601 -10.5723,-5.7742 -1.1556,-0.9222 -1.2686,-0.046 -0.421,3.2625 2.4749,9.6603 10.9614,28.5675 17.7914,39.6375 9.3852,15.2116 20.2986,28.1328 33.6395,39.8285 9.78,8.5738 14.477,12.0088 25.6432,18.753 20.7631,12.5406 43.8737,20.3083 70.0217,23.535 6.3989,0.7896 28.5625,0.9245 35.7204,0.2174 z m 25.8709,-13.8915 c -0.1618,-1.0755 -0.7801,-5.71 -1.374,-10.299 -0.5938,-4.5888 -1.4392,-9.3382 -1.8785,-10.554 -1.4164,-3.9199 -3.2034,-4.6758 -14.5357,-6.1488 -8.9329,-1.1612 -12.7759,-1.8651 -12.7759,-2.3402 0,-0.2403 1.3493,-0.5933 2.9985,-0.7845 1.6491,-0.1913 6.8242,-0.8813 11.5002,-1.5335 7.7712,-1.0837 8.6675,-1.3191 10.4293,-2.7387 2.4304,-1.9583 2.9305,-3.4857 4.0752,-12.4482 0.5097,-3.9903 1.0808,-7.322 1.2692,-7.4037 0.1884,-0.082 0.2326,-0.7237 0.098,-1.4268 -0.3136,-1.6405 0.2993,-4.943 0.9174,-4.943 0.5506,0 0.6075,0.3159 2.327,12.9095 0.7149,5.2361 1.6685,10.233 2.119,11.1043 1.6536,3.1976 3.7884,3.86 18.4979,5.7393 8.1889,1.0462 9.3232,1.2697 8.822,1.7378 -0.1195,0.1117 -4.488,0.8156 -9.7079,1.5643 -13.218,1.896 -14.7333,2.2682 -16.3711,4.0215 -1.7414,1.8642 -2.24,3.8691 -3.6181,14.5494 -1.3437,10.4131 -1.4433,10.9498 -2.0329,10.9498 -0.2562,0 -0.5981,-0.88 -0.7598,-1.9555 z m 25.613,-29.1261 c -0.1733,-0.1732 -0.6231,-0.1917 -0.9995,-0.041 -0.416,0.1665 -0.2924,0.2901 0.3151,0.3151 0.5497,0.022 0.8577,-0.1006 0.6844,-0.2739 z m -24.5438,-26.9314 c -0.1446,-0.3586 -0.263,-0.065 -0.263,0.6518 0,0.717 0.1184,1.0103 0.263,0.6518 0.1447,-0.3585 0.1447,-0.9452 0,-1.3036 z m -18.7378,70.2131 c -0.1733,-0.1733 -0.6231,-0.1918 -0.9995,-0.041 -0.416,0.1665 -0.2925,0.29 0.315,0.3151 0.5497,0.023 0.8577,-0.1007 0.6845,-0.274 z m 81.0349,-5.2907 c 0.662,-0.8441 0.6374,-0.8552 -0.3273,-0.1476 -0.5736,0.4208 -1.1407,0.8314 -1.2602,0.9126 -0.1195,0.081 0.028,0.1476 0.3272,0.1476 0.2995,0 0.8666,-0.4107 1.2603,-0.9126 z m -2.6739,-28.2246 c 16.2345,-11.9433 31.26871,-27.9228 42.3937,-45.0592 3.28419,-5.0589 3.55822,-5.8768 1.80052,-5.3737 -2.05953,0.5895 -13.44954,1.9198 -13.92449,1.6263 -0.25139,-0.1554 -0.5358,-0.094 -0.63201,0.1371 -0.0962,0.2309 -5.33742,1.1531 -11.64712,2.0494 -13.6007,1.932 -13.0931,1.8257 -16.8485,3.5269 -5.5107,2.4961 -9.1529,8.3553 -10.2457,16.4817 -0.3837,2.8537 -0.6035,4.3232 -1.3185,8.8168 -1.2018,7.5532 -3.4524,25.8541 -3.2523,26.4464 0.2188,0.6479 6.0383,-3.034 13.6744,-8.6517 z m -245.0888,-0.2448 c 0,-0.099 -0.528,-0.627 -1.1733,-1.1733 l -1.1733,-0.9934 0.9934,1.1733 c 0.9335,1.1026 1.3532,1.4107 1.3532,0.9934 z m 295.21606,-13.2478 c 0.64859,-0.8271 0.63018,-0.8455 -0.19691,-0.197 -0.86862,0.6813 -1.14487,1.1095 -0.71566,1.1095 0.10823,0 0.51891,-0.4106 0.91257,-0.9125 z m -71.68346,-1.8252 c -0.1446,-0.3585 -0.263,-0.065 -0.263,0.6519 0,0.717 0.1184,1.0103 0.263,0.6518 0.1447,-0.3585 0.1447,-0.9451 0,-1.3037 z m 11.4831,-10.9181 c -0.1664,-0.416 -0.29,-0.2925 -0.315,0.315 -0.023,0.5497 0.1006,0.8577 0.2739,0.6845 0.1732,-0.1734 0.1918,-0.6231 0.041,-0.9995 z m 75.77776,-8.3468 c 0,-0.2722 -0.35197,-0.1429 -0.78218,0.2873 -0.43021,0.4302 -0.78218,0.945 -0.78218,1.1441 0,0.1989 0.35197,0.07 0.78218,-0.2874 0.43021,-0.357 0.78218,-0.8718 0.78218,-1.144 z m -55.55506,-11.8448 c 0.9165,-0.3583 0.869,-0.4392 -0.4526,-0.7709 -0.8122,-0.2038 -1.6054,-0.2419 -1.7627,-0.084 -0.1574,0.1574 0.1636,0.2897 0.7133,0.2941 0.8363,0.01 0.8717,0.09 0.2173,0.5135 -0.9182,0.5934 -0.181,0.6208 1.2847,0.048 z m -88.5106,-5.0561 c -0.1733,-0.1733 -0.6231,-0.1918 -0.9995,-0.041 -0.416,0.1664 -0.2925,0.29 0.315,0.3151 0.5497,0.022 0.8577,-0.1007 0.6845,-0.2739 z m -2.6074,-3.1288 c -0.1733,-0.1733 -0.623,-0.1918 -0.9995,-0.041 -0.4159,0.1665 -0.2924,0.2901 0.3151,0.3151 0.5497,0.022 0.8577,-0.1006 0.6844,-0.274 z m 133.53622,-8.4195 c 1.94292,-3.9436 4.26702,-9.0474 5.16464,-11.3418 1.95713,-5.0028 6.42279,-18.26 6.75046,-20.0399 0.12828,-0.6969 0.34485,-1.4478 0.48129,-1.6685 0.30028,-0.4859 2.4865,-11.6785 3.36636,-17.2348 0.66951,-4.2277 0.4419,-6.4895 -0.65852,-6.5443 -0.36504,-0.018 -3.36232,-0.9755 -6.66057,-2.1275 -3.29826,-1.152 -8.57812,-2.711 -11.73297,-3.4645 -3.15487,-0.7534 -6.67476,-1.6021 -7.82199,-1.8858 -1.14722,-0.2838 -2.78984,-0.605 -3.65025,-0.7139 -0.86042,-0.1088 -4.84963,-0.7012 -8.86492,-1.3162 -8.44585,-1.2938 -26.88695,-1.5684 -37.28475,-0.5553 -7.1511,0.6968 -7.2795,0.7324 -7.003,1.9381 0.1192,0.5195 0.558,4.2298 0.9751,8.245 1.5976,15.3774 5.4859,42.1722 6.6133,45.5734 2.5855,7.7997 6.4297,10.9941 15.3547,12.7592 6.7932,1.3435 35.61508,5.3185 39.73502,5.4801 1.68445,0.066 1.74311,-0.014 5.2361,-7.1033 z m -110.07022,5.2907 c -0.1733,-0.1733 -0.6231,-0.1918 -0.9995,-0.041 -0.416,0.1665 -0.2924,0.2901 0.3151,0.3151 0.5497,0.022 0.8577,-0.1007 0.6844,-0.2739 z m -130.3555,-13.0951 c -0.7888,-0.1194 -2.0794,-0.1194 -2.8681,0 -0.7887,0.1196 -0.1434,0.2173 1.434,0.2173 1.5775,0 2.2228,-0.098 1.4341,-0.2173 z m 12.7758,-0.5159 c -0.6453,-0.1243 -1.7012,-0.1243 -2.3466,0 -0.6452,0.1243 -0.1173,0.2259 1.1733,0.2259 1.2907,0 1.8187,-0.1016 1.1733,-0.2259 z m 164.7165,-10.4133 c -0.6148,-1.0571 -0.7632,-0.7188 -0.26,0.5925 0.1788,0.4661 0.435,0.7376 0.5693,0.6033 0.1342,-0.1343 0,-0.6724 -0.3093,-1.1958 z m 100.98996,-13.2774 c -0.13022,-0.3906 -0.3666,-0.1542 -0.55099,0.5509 -0.22683,0.8674 -0.15894,1.071 0.22802,0.6841 0.30307,-0.3031 0.44833,-0.8588 0.32297,-1.235 z m -270.00846,-3.0479 c 10.7623,-1.0644 28.781,-5.0745 35.1989,-7.8337 0.5736,-0.2467 3.8588,-1.5527 7.3005,-2.9023 3.4417,-1.3497 8.8388,-3.6832 11.9937,-5.1857 3.1549,-1.5025 8.2571,-3.9376 11.3383,-5.4112 3.0812,-1.4736 5.7535,-2.6559 5.9385,-2.6272 0.1851,0.029 0.48,-0.1566 0.6555,-0.4116 0.3716,-0.5402 2.3584,-1.5775 20.9165,-10.9201 7.6002,-3.8261 13.9737,-6.9565 14.1635,-6.9565 0.1897,0 2.0672,-0.8061 4.1721,-1.7912 7.4425,-3.4833 23.2672,-9.044 31.316,-11.0043 1.8027,-0.4391 6.7974,-1.3999 11.0995,-2.1352 9.6259,-1.6452 29.0979,-2.2659 39.7285,-1.2664 6.8148,0.6407 20.70564,3.0965 25.71546,4.5462 6.73249,1.9482 12.82284,3.9435 15.82021,5.1832 1.7673,0.7309 3.9108,1.6051 4.76334,1.9428 0.85255,0.3376 3.31161,1.4791 5.46466,2.5367 2.15298,1.0575 4.01766,1.8196 4.14364,1.6936 0.27383,-0.2738 -0.89407,-18.6806 -1.30657,-20.5929 -0.31856,-1.4768 -2.59657,-3.0421 -9.3303,-6.4111 -2.29449,-1.1479 -4.28906,-2.1188 -4.43246,-2.1574 -0.14341,-0.039 -1.19938,-0.4877 -2.3466,-0.9979 -10.23539,-4.5521 -26.84708,-9.0538 -40.53728,-10.9855 -8.3558,-1.1791 -11.485,-1.3733 -21.6071,-1.3413 -15.7115,0.05 -25.3479,1.1198 -38.0782,4.2285 -7.8394,1.9144 -18.4118,5.3592 -22.3218,7.2732 -0.5736,0.2808 -1.8643,0.8152 -2.8681,1.1876 -3.5976,1.3346 -7.89,3.4079 -32.07,15.4903 -13.4884,6.74 -26.6328,13.2309 -29.2098,14.4244 -6.0356,2.7951 -12.0629,5.3913 -12.5162,5.3913 -0.1954,0 -1.0947,0.3289 -1.9984,0.731 -3.4229,1.5226 -9.1607,3.4879 -15.2013,5.2067 -6.1451,1.7486 -7.8239,2.1621 -10.9508,2.6971 -0.8604,0.1472 -2.2684,0.4866 -3.1288,0.7542 -4.4946,1.3978 -18.4043,2.6047 -30.0204,2.6047 -6.8007,0 -11.9576,-0.2038 -11.9576,-0.4726 0,-0.26 -0.4765,-0.3481 -1.0589,-0.1958 -1.1946,0.3125 -10.367,-0.7363 -12.7599,-1.4588 -0.8605,-0.2599 -2.2684,-0.571 -3.1288,-0.6916 -9.1492,-1.282 -25.5597,-6.6402 -35.3552,-11.5438 -2.5536,-1.2784 -4.7364,-2.3243 -4.8507,-2.3243 -0.3869,0 -0.1939,9.0921 0.3266,15.3833 0.6124,7.4019 -0.075,6.586 9.6343,11.4277 25.5897,12.76 56.2321,17.9928 87.3455,14.9159 z m -120.6238,-12.1011 c -0.1665,-0.416 -0.29,-0.2925 -0.3151,0.3151 -0.023,0.5496 0.1007,0.8576 0.2739,0.6844 0.1733,-0.1733 0.1918,-0.6231 0.041,-0.9995 z m 285.7631,0 c -0.1665,-0.416 -0.29,-0.2925 -0.3151,0.3151 -0.023,0.5496 0.1007,0.8576 0.2739,0.6844 0.1733,-0.1733 0.1918,-0.6231 0.041,-0.9995 z m -0.5215,-5.7362 c -0.1664,-0.4159 -0.29,-0.2924 -0.315,0.3151 -0.023,0.5497 0.1006,0.8577 0.2739,0.6844 0.1732,-0.1732 0.1918,-0.623 0.041,-0.9995 z m -286.2845,-3.1287 c -0.1665,-0.416 -0.2901,-0.2925 -0.3151,0.315 -0.023,0.5497 0.1006,0.8577 0.2739,0.6845 0.1733,-0.1733 0.1918,-0.6231 0.041,-0.9995 z m -0.5215,-3.6503 c -0.1665,-0.416 -0.2901,-0.2924 -0.3151,0.3151 -0.023,0.5496 0.1006,0.8577 0.2739,0.6844 0.1733,-0.1733 0.1918,-0.6231 0.041,-0.9995 z m 116.3108,-2.8246 c -0.1733,-0.1733 -0.623,-0.1918 -0.9994,-0.041 -0.416,0.1664 -0.2925,0.29 0.315,0.3151 0.5497,0.022 0.8577,-0.1007 0.6844,-0.274 z m 174.8322,-5.1045 c 0,-0.1128 -0.3642,-0.3447 -0.8093,-0.5156 -0.464,-0.178 -0.6734,-0.091 -0.4907,0.205 0.3063,0.4955 1.3,0.7329 1.3,0.3106 z m -119.5568,-12.6253 c -0.1733,-0.1733 -0.6231,-0.1918 -0.9995,-0.041 -0.416,0.1665 -0.2924,0.29 0.315,0.3151 0.5497,0.023 0.8577,-0.1006 0.6845,-0.2739 z m -73.5267,-6.2576 c -0.1733,-0.1733 -0.623,-0.1918 -0.9994,-0.041 -0.416,0.1665 -0.2925,0.2901 0.315,0.3151 0.5497,0.023 0.8577,-0.1006 0.6844,-0.2739 z m 7.0315,-1.7569 4.5437,-0.6695 -0.2541,-2.1492 c -1.4585,-12.3418 -4.567,-36.5106 -5.1723,-40.2161 -0.4216,-2.5813 -0.8451,-5.5231 -0.941,-6.5375 -0.096,-1.0143 -0.3088,-2.0703 -0.4732,-2.3466 -0.1645,-0.2763 -0.4722,-1.3236 -0.6839,-2.3274 -1.4526,-6.8891 -7.3797,-11.8056 -15.7728,-13.0836 -2.3661,-0.3602 -4.3037,-0.7904 -4.3057,-0.9559 0,-0.1655 -0.9993,-0.3575 -2.2162,-0.4267 -1.217,-0.069 -9.1351,-1.0325 -17.5959,-2.1406 -8.4608,-1.108 -15.5747,-1.9079 -15.8088,-1.7775 -0.4766,0.2656 -6.9114,13.1791 -8.3813,16.8199 -0.5211,1.2906 -1.4092,3.6372 -1.9736,5.2146 -0.5645,1.5774 -1.2195,3.3374 -1.4557,3.911 -2.7903,6.777 -6.6185,21.9087 -7.8484,31.0234 -0.7667,5.6808 -0.8037,6.7257 -0.218,6.1399 0.1625,-0.1625 1.7464,0.2923 3.5199,1.0106 8.638,3.4986 27.6304,7.8676 39.2057,9.0189 6.1732,0.614 30.5643,0.2684 35.8316,-0.5077 z m 19.1748,-3.865 c 1.5729,-0.414 3.0395,-0.6416 3.2592,-0.5059 0.2196,0.1357 0.3993,0 0.3993,-0.3054 0,-0.3038 0.376,-0.5523 0.8356,-0.5523 0.4596,0 2.9822,-0.7265 5.6058,-1.6146 2.6235,-0.888 5.0048,-1.6703 5.2916,-1.7386 0.2868,-0.068 1.1081,-0.383 1.8251,-0.6997 0.717,-0.3166 3.4156,-1.4391 5.9968,-2.4945 8.4164,-3.4412 11.7101,-5.0042 33.6894,-15.9861 11.9326,-5.9622 21.8298,-10.8403 21.9938,-10.8403 0.164,0 2.134,-0.8516 4.3777,-1.8924 18.5525,-8.6063 36.5661,-14.3306 53.0972,-16.8731 7.8746,-1.2111 26.3543,-2.4207 27.7362,-1.8155 0.5194,0.2275 2.1197,0.3574 3.5563,0.2887 6.7905,-0.3246 23.4035,2.4315 34.9268,5.7945 6.78365,1.9797 16.82812,5.5096 18.91701,6.6478 0.498,0.2713 4.30646,2.1733 8.46316,4.2265 4.15678,2.0532 8.21815,4.2034 9.02534,4.7782 0.80719,0.5747 1.59394,0.9186 1.74843,0.7641 0.34868,-0.3487 -3.97058,-13.0319 -6.49728,-19.0789 -5.53918,-13.2565 -15.63509,-30.2467 -23.95987,-40.3217 -1.97223,-2.3869 -3.17692,-4.2811 -2.95306,-4.6434 0.21818,-0.353 0.15384,-0.4732 -0.15211,-0.2841 -0.29166,0.1803 -1.94089,-1.2501 -3.66502,-3.1786 -1.7242,-1.9284 -5.3809,-5.7199 -8.1261,-8.4255 -2.7453,-2.7055 -4.8506,-5.1471 -4.6785,-5.4256 0.1721,-0.2785 0.047,-0.3422 -0.2772,-0.1416 -0.7407,0.4578 -4.355,-2.7636 -3.9094,-3.4845 0.188,-0.3043 0.07,-0.3709 -0.2779,-0.1561 -0.353,0.2181 -2.1817,-0.9207 -4.3827,-2.7292 -5.5864,-4.5904 -15.2185,-11.157 -22.0889,-15.059 -9.9519,-5.6521 -28.8855,-13.7008 -35.9576,-15.28574 -1.3623,-0.30529 -2.7325,-0.71503 -3.045,-0.91053 -0.3124,-0.19551 -0.8027,-0.39912 -1.0895,-0.45248 -0.2868,-0.0534 -2.7508,-0.60573 -5.4754,-1.22748 -2.7247,-0.62175 -6.2446,-1.3482 -7.822,-1.61433 -24.8359,-4.19013 -42.5883,-4.09258 -66.1623,0.36358 -9.018,1.70467 -9.5628,1.9132 -8.9946,3.44292 0.2428,0.65387 0.6057,2.71416 0.8063,4.57836 0.677,6.2921 2.451,18.4977 2.9886,20.5621 0.2936,1.1275 1.1383,2.8426 1.8772,3.8113 2.3788,3.1187 3.2167,3.3621 18.6419,5.4158 4.3021,0.5727 9.4433,1.2598 11.4249,1.5269 6.5997,0.8895 5.3444,1.7148 -4.2601,2.8008 -7.8817,0.8912 -18.4233,2.5828 -21.4891,3.4483 -4.2328,1.195 -5.8006,3.9656 -7.2184,12.7563 -0.6014,3.7284 -1.3555,9.2429 -1.6759,12.2544 -0.3204,3.0115 -0.7997,5.8817 -1.0652,6.3784 -0.598,1.1187 -0.6183,1.1136 9.9435,2.5048 4.4455,0.5855 9.7253,1.283 11.733,1.55 2.0076,0.267 4.7649,0.4926 6.1272,0.5015 2.401,0.015 2.477,0.064 2.477,1.5805 0,0.8604 -0.2134,1.5644 -0.4742,1.5644 -1.7859,0 -39.3484,4.9635 -45.616,6.0277 -7.7173,1.3103 -10.3427,2.0828 -12.8354,3.7765 -0.7171,0.4872 -1.773,0.8858 -2.3466,0.8858 -0.7177,0 -1.043,0.3477 -1.043,1.1146 0,0.613 -0.3823,1.5516 -0.8497,2.0859 -1.5197,1.7372 -2.4549,4.0973 -3.2927,8.3091 -1.1538,5.8005 -2.7297,16.3981 -3.7165,24.993 -0.461,4.0153 -0.9716,7.6525 -1.1347,8.0827 -0.1631,0.4302 -0.2623,1.0187 -0.2204,1.3077 0.042,0.2891 -0.361,3.9263 -0.8953,8.0827 -0.5343,4.1565 -0.8919,7.6972 -0.7948,7.8683 0.1757,0.3093 6.2175,-0.8998 11.6781,-2.337 z m -0.5132,-58.7248 c 0,-0.2868 0.2346,-0.5215 0.5214,-0.5215 0.2868,0 0.5215,0.2347 0.5215,0.5215 0,0.2868 -0.2347,0.5215 -0.5215,0.5215 -0.2868,0 -0.5214,-0.2347 -0.5214,-0.5215 z m 248.57377,56.2205 c -0.16643,-0.416 -0.29002,-0.2924 -0.31506,0.3151 -0.0222,0.5497 0.10064,0.8577 0.27391,0.6844 0.17331,-0.1733 0.1918,-0.6231 0.0412,-0.9995 z m -60.19437,-25.7994 c -0.3585,-0.1446 -0.9452,-0.1446 -1.3037,0 -0.3585,0.1447 -0.065,0.263 0.6519,0.263 0.717,0 1.0103,-0.1183 0.6518,-0.263 z m -34.6883,-0.4911 c -0.1733,-0.1733 -0.6231,-0.1918 -0.9995,-0.041 -0.416,0.1665 -0.2924,0.29 0.315,0.3151 0.5498,0.023 0.8577,-0.1007 0.6845,-0.2739 z m -160.6355,-11.255 c -0.1664,-0.416 -0.29,-0.2924 -0.315,0.315 -0.023,0.5498 0.1006,0.8577 0.2739,0.6845 0.1733,-0.1733 0.1918,-0.6231 0.041,-0.9995 z m 234.16212,0.8256 c -0.17327,-0.1732 -0.62305,-0.1918 -0.9995,-0.041 -0.41595,0.1665 -0.2924,0.29 0.31507,0.315 0.54967,0.023 0.85774,-0.1006 0.68443,-0.2738 z m -249.05562,-15.6809 c -0.6148,-1.0571 -0.7632,-0.7187 -0.26,0.5926 0.1788,0.466 0.435,0.7375 0.5692,0.6032 0.1343,-0.1342 0,-0.6723 -0.3092,-1.1958 z m -8.5484,-8.3065 c -0.1732,-0.1732 -0.623,-0.1918 -0.9994,-0.041 -0.416,0.1664 -0.2925,0.29 0.315,0.315 0.5497,0.023 0.8577,-0.1006 0.6844,-0.2739 z m -16.4153,-3.1591 c -0.3585,-0.1446 -0.9451,-0.1446 -1.3036,0 -0.3585,0.1447 -0.065,0.2631 0.6518,0.2631 0.717,0 1.0103,-0.1184 0.6518,-0.2631 z m -4.1618,-0.5181 c -0.353,-0.1429 -1.057,-0.1516 -1.5644,-0.019 -0.5073,0.1322 -0.2185,0.2491 0.6419,0.2597 0.8605,0.011 1.2756,-0.098 0.9225,-0.2404 z m 106.0975,-3.6233 c -0.1733,-0.1733 -0.6231,-0.1918 -0.9995,-0.041 -0.416,0.1664 -0.2924,0.29 0.3151,0.315 0.5497,0.023 0.8577,-0.1006 0.6844,-0.2739 z m 4.9648,-0.5518 c -0.3585,-0.1446 -0.9452,-0.1446 -1.3037,0 -0.3585,0.1447 -0.065,0.2631 0.6518,0.2631 0.7171,0 1.0104,-0.1184 0.6519,-0.2631 z m -9.1365,-2.0555 c -0.1733,-0.1733 -0.6231,-0.1918 -0.9995,-0.041 -0.416,0.1665 -0.2924,0.2901 0.315,0.3151 0.5497,0.023 0.8577,-0.1006 0.6845,-0.2739 z m -115.8849,-2.5424 c 3.2557,-0.3709 14.8363,-1.9869 22.423,-3.129 16.0824,-2.4209 19.8331,-6.0051 22.4081,-21.4134 1.7961,-10.7472 4.2872,-31.808 3.8831,-32.8294 -0.3579,-0.9049 -0.4169,-0.92 -0.4456,-0.114 -0.018,0.5109 -0.4437,1.0804 -0.9456,1.2656 -0.5019,0.1852 -1.0299,0.4711 -1.1733,0.6355 -0.1434,0.1643 -2.7135,1.9413 -5.7112,3.949 -4.9417,3.3095 -7.0212,4.9159 -15.4082,11.9034 -2.8412,2.3671 -12.3068,11.763 -15.6439,15.5286 -2.4556,2.771 -3.5374,4.0813 -5.9834,7.2472 -0.9964,1.2897 -1.9364,2.4622 -2.0888,2.6056 -2.1647,2.0362 -10.4885,15.0194 -9.7806,15.2553 0.3264,0.1088 1.7783,0.017 3.2263,-0.2048 1.448,-0.2214 3.8061,-0.5362 5.2401,-0.6996 z m 94.3686,-3.2698 c -0.1594,-1.0755 -0.7529,-5.4754 -1.319,-9.7775 -2.0204,-15.3552 -2.5373,-17.1311 -5.657,-19.4377 -1.9494,-1.4412 -11.5338,-3.2271 -24.556,-4.5756 -1.8642,-0.193 -3.6555,-0.5655 -3.9805,-0.8277 -0.7815,-0.6304 -1.2797,0.6914 -0.9627,2.5541 0.1337,0.7856 0.8488,5.1829 1.5891,9.7718 1.4644,9.0773 2.8201,12.9109 5.5986,15.8312 3.8504,4.047 7.0062,5.1683 19.9178,7.0771 4.5889,0.6784 8.6395,1.2574 9.0014,1.2866 0.4688,0.038 0.5747,-0.5091 0.3683,-1.9023 z m -11.8575,1.119 c -0.1733,-0.1733 -0.6231,-0.1918 -0.9995,-0.041 -0.416,0.1665 -0.2924,0.2901 0.315,0.3151 0.5497,0.023 0.8577,-0.1006 0.6845,-0.2739 z m -45.4871,-3.8567 c 0.1773,-0.2868 0.074,-0.5214 -0.2299,-0.5214 -0.3037,0 -0.5522,0.2346 -0.5522,0.5214 0,0.2868 0.1034,0.5215 0.2299,0.5215 0.1265,0 0.375,-0.2347 0.5522,-0.5215 z m 29.2021,-1.0429 c -0.1773,-0.2868 -0.5569,-0.5215 -0.8437,-0.5215 -0.2868,0 -0.3765,0.2347 -0.1992,0.5215 0.1773,0.2868 0.5569,0.5215 0.8437,0.5215 0.2868,0 0.3765,-0.2347 0.1992,-0.5215 z m -5.4311,-7.8767 c -0.2748,-0.6869 -0.5145,-0.9748 -0.5327,-0.6398 -0.044,0.8138 0.5633,2.3578 0.8248,2.0964 0.1141,-0.1142 -0.017,-0.7696 -0.2921,-1.4566 z m 206.4561,-13.7334 c 0,-0.1264 -0.2347,-0.3749 -0.5215,-0.5522 -0.2868,-0.1773 -0.5214,-0.074 -0.5214,0.23 0,0.3037 0.2346,0.5522 0.5214,0.5522 0.2868,0 0.5215,-0.1035 0.5215,-0.23 z m -7.3005,-7.3005 c 0,-0.1264 -0.2347,-0.375 -0.5215,-0.5522 -0.2868,-0.1773 -0.5215,-0.074 -0.5215,0.2299 0,0.3038 0.2347,0.5523 0.5215,0.5523 0.2868,0 0.5215,-0.1035 0.5215,-0.23 z m -183.1757,-0.6065 c -0.1732,-0.1733 -0.623,-0.1918 -0.9994,-0.041 -0.416,0.1665 -0.2924,0.29 0.315,0.3151 0.5497,0.023 0.8577,-0.1006 0.6844,-0.2739 z m -4.1717,-0.5215 c -0.1732,-0.1733 -0.623,-0.1918 -0.9995,-0.041 -0.416,0.1665 -0.2924,0.2901 0.3151,0.3151 0.5497,0.023 0.8577,-0.1006 0.6844,-0.2739 z m 47.725,-0.03 c -0.3585,-0.1447 -0.9452,-0.1447 -1.3037,0 -0.3585,0.1446 -0.065,0.263 0.6518,0.263 0.7171,0 1.0104,-0.1184 0.6519,-0.263 z m -51.8967,-0.4912 c -0.1733,-0.1733 -0.6231,-0.1918 -0.9995,-0.041 -0.416,0.1664 -0.2924,0.29 0.3151,0.315 0.5497,0.023 0.8577,-0.1006 0.6844,-0.2739 z m 55.7968,0 c -0.1733,-0.1733 -0.623,-0.1918 -0.9995,-0.041 -0.416,0.1664 -0.2924,0.29 0.3151,0.315 0.5497,0.023 0.8577,-0.1006 0.6844,-0.2739 z m -56.9592,-3.3151 c 10.643,-1.3769 17.424,-2.5774 18.9159,-3.3488 3.9689,-2.0525 5.1275,-5.3991 6.8808,-19.8765 0.5905,-4.8757 1.2792,-9.6153 1.5305,-10.53246 0.3725,-1.35976 0.299,-1.70159 -0.3986,-1.85202 -0.4704,-0.10147 -1.2074,-0.027 -1.6376,0.16547 -0.4302,0.19248 -4.1847,1.45884 -8.3434,2.81411 -4.1587,1.3553 -10.0252,3.5236 -13.0367,4.8184 -6.0545,2.6033 -15.7489,7.4266 -16.1817,8.051 -0.2364,0.3411 1.9015,18.9498 2.3629,20.5662 0.1091,0.3823 1.0614,0.4306 2.9487,0.1495 1.5331,-0.2284 4.6647,-0.6581 6.9592,-0.9549 z m -31.3103,-8.849 c 0.1651,-0.267 0.1007,-0.6086 -0.143,-0.7592 -0.2437,-0.1506 -0.4431,0.068 -0.4431,0.4854 0,0.8793 0.1645,0.9561 0.5861,0.2738 z m 63.2151,-2.2196 c -0.1664,-0.416 -0.29,-0.2925 -0.315,0.315 -0.023,0.5497 0.1006,0.8577 0.2739,0.6844 0.1733,-0.1732 0.1918,-0.623 0.041,-0.9994 z m 190.64048,-54.99818 c -0.35303,-0.14284 -1.057,-0.15153 -1.56439,-0.0194 -0.50733,0.13222 -0.21849,0.24909 0.64192,0.25972 0.86042,0.0106 1.27556,-0.0976 0.92247,-0.24039 z m 8.90497,-2.31862 c 7.4582,-1.86423 12.32128,-5.29167 14.55755,-10.25989 1.57797,-3.50575 1.9182,-11.71755 0.62577,-15.10178 -1.82889,-4.78879 -6.50238,-8.52767 -14.06,-11.24824 -8.28706,-2.98317 -11.48854,-4.51893 -12.90625,-6.19116 -0.78872,-0.93033 -1.43403,-2.01613 -1.43403,-2.4129 0,-1.3997 2.12632,-3.68293 4.0083,-4.30402 3.01825,-0.99613 12.08878,-0.31122 17.11104,1.29204 2.29448,0.73246 4.18784,1.33526 4.20757,1.33956 0.23803,0.0519 -1.49475,-13.38451 -1.75869,-13.63752 -1.02635,-0.98387 -14.40703,-2.13116 -19.91796,-1.70782 -8.71818,0.66973 -13.79548,2.52599 -17.78547,6.50243 -6.91368,6.89012 -5.97548,19.77952 1.85579,25.49607 3.12545,2.28149 4.48852,2.93529 11.95418,5.73385 6.80154,2.5496 8.95315,3.80909 10.01489,5.86223 0.99216,1.91864 0.23539,4.7554 -1.58723,5.94961 -3.95974,2.59453 -15.5976,1.673 -24.52861,-1.94226 -3.6429,-1.47467 -4.0458,-1.45396 -4.132,0.21247 -0.041,0.78872 0.082,1.43403 0.2729,1.43403 0.1909,0 0.5171,1.81861 0.725,4.04136 0.7469,7.98827 0.4829,7.61343 6.14001,8.7198 10.16075,1.98718 19.27188,2.06316 26.63724,0.22214 z m -311.43005,-6.46498 c 0.036,-3.58507 0.094,-6.81164 0.1304,-7.17015 0.047,-0.47066 1.6595,-0.68209 5.8012,-0.76069 3.1549,-0.0599 7.2615,-0.40098 9.1257,-0.75801 1.8642,-0.35704 3.5655,-0.60138 3.7806,-0.54298 0.2151,0.0584 0.3911,-0.0913 0.3911,-0.33274 0,-0.24141 0.9203,-0.71465 2.0451,-1.05165 4.355,-1.30477 9.4451,-6.2165 11.9655,-11.54606 1.265,-2.67486 1.3569,-3.37743 1.3645,-10.42932 0.01,-7.09451 -0.076,-7.73829 -1.3609,-10.42931 -0.753,-1.57743 -2.211,-3.83399 -3.2401,-5.01457 -2.9247,-3.35521 -9.6499,-6.38119 -16.3573,-7.35985 -3.0856,-0.45022 -22.9829,-0.27076 -28.3121,0.25534 l -3.9109,0.38611 -0.1354,29.98427 c -0.074,16.49135 -0.023,30.27759 0.114,30.6361 0.1864,0.48719 2.5584,0.65183 9.3914,0.65183 l 9.142,0 0.065,-6.51832 z m 1.6579,-19.44583 c -0.459,-0.29184 -0.5966,-3.55596 -0.5215,-12.37683 l 0.102,-11.98045 3.9373,0.0216 c 5.701,0.0312 8.8237,1.72879 10.931,5.94231 0.9857,1.97098 1.1242,2.93816 0.9357,6.53071 -0.2558,4.87388 -1.5103,7.66121 -4.312,9.58097 -2.9196,2.00056 -9.4107,3.33818 -11.0725,2.28172 z m 2.579,-0.97595 c -0.3585,-0.14466 -0.9452,-0.14466 -1.3037,0 -0.3585,0.14466 -0.065,0.26302 0.6518,0.26302 0.7171,0 1.0104,-0.11836 0.6519,-0.26302 z m 56.7746,15.72859 c 0.036,-6.16633 0.095,-11.50483 0.1303,-11.86334 0.049,-0.48899 2.4427,-0.69059 9.5819,-0.80695 l 9.5168,-0.15513 0,12.01847 0,12.01846 9.3781,0 9.378,0 0.1387,-30.29493 c 0.076,-16.66221 -0.034,-30.40183 -0.2459,-30.53247 -0.4939,-0.30507 -18.1724,-0.31296 -18.4771,-0.008 -0.1261,0.12611 -0.275,5.47665 -0.3309,11.89008 l -0.1016,11.66077 -9.3864,0 -9.3864,0 -0.1162,-11.47224 c -0.064,-6.30973 -0.1227,-11.7069 -0.1307,-11.99371 -0.01,-0.33076 -3.3995,-0.49081 -9.2702,-0.43765 l -9.2557,0.0838 -0.1345,30.55229 -0.1345,30.55228 9.3905,0 9.3905,0 0.065,-11.21151 z m 70.3326,-19.29422 c 0,-28.70155 -0.054,-30.50635 -0.9126,-30.51595 -9.4741,-0.106 -17.4585,-0.0438 -17.6397,0.13739 -0.1634,0.16342 -0.3545,50.46362 -0.2288,60.23246 0.01,0.49701 2.2377,0.65183 9.3947,0.65183 l 9.3864,0 0,-30.50573 z m 47.6682,29.59316 c 0.2718,-0.86991 2.3925,-10.97415 2.3925,-11.39928 0,-0.11183 -3.9936,-0.20333 -8.8748,-0.20333 l -8.8747,0 0.03,-24.05403 c 0.017,-13.22972 -0.063,-24.14682 -0.176,-24.26022 -0.3217,-0.32171 -17.89,-0.36455 -18.4074,-0.0449 -0.2604,0.16085 -0.4002,13.44918 -0.3218,30.5794 l 0.1386,30.29493 16.9042,0 c 15.643,0 16.9255,-0.0681 17.1893,-0.91257 z m 27.9443,-29.56991 0,-30.48248 -9.256,-0.15362 c -5.0908,-0.0845 -9.432,-0.0811 -9.6471,0.007 -0.2151,0.0886 -0.3911,13.87488 -0.3911,30.63611 l 0,30.47497 9.6471,0 9.6471,0 0,-30.48248 z m 32.4465,23.31233 0.1451,-7.17015 7.5613,-0.33392 c 5.6747,-0.25061 8.3149,-0.60329 10.5819,-1.41361 4.4779,-1.60052 7.8152,-3.56479 10.1859,-5.99514 2.2426,-2.29908 5.3054,-7.62585 5.3054,-9.22714 0,-0.52756 0.176,-1.06798 0.3911,-1.20094 0.2151,-0.13295 0.4666,-2.32587 0.5587,-4.87315 0.1828,-5.04833 -0.7743,-10.32638 -2.4662,-13.60018 -2.5757,-4.98408 -8.9303,-8.94953 -16.7349,-10.44305 -4.7406,-0.90719 -20.5987,-1.03493 -29.9842,-0.24152 -4.5783,0.38703 -4.6915,0.42866 -4.6249,1.70041 0.038,0.71701 0.096,14.50326 0.1304,30.6361 l 0.062,29.33244 9.3717,0 9.3717,0 0.145,-7.17015 z m 1.081,-30.69279 0.107,-12.45849 3.9166,0.0561 c 7.772,0.1113 12.0298,4.33622 11.9653,11.87281 -0.064,7.47551 -4.5556,12.02056 -12.5407,12.69 l -3.5553,0.29806 0.1071,-12.45848 z m 13.1437,6.05354 c 0.1772,-0.2868 0.074,-0.52146 -0.23,-0.52146 -0.3037,0 -0.5522,0.23466 -0.5522,0.52146 0,0.28681 0.1035,0.52147 0.2299,0.52147 0.1265,0 0.375,-0.23466 0.5523,-0.52147 z m -0.5215,-14.07957 c 0.1773,-0.28681 0.074,-0.52146 -0.2299,-0.52146 -0.3038,0 -0.5523,0.23465 -0.5523,0.52146 0,0.2868 0.1035,0.52146 0.23,0.52146 0.1265,0 0.375,-0.23466 0.5522,-0.52146 z m -141.7086,0.13037 c -0.081,-7.67206 -0.1478,-1.39492 -0.1478,13.9492 0,15.34413 0.066,21.62127 0.1478,13.9492 0.081,-7.67206 0.081,-20.22634 0,-27.8984 z m -97.0031,31.88544 c -0.1733,-0.17327 -0.623,-0.1918 -0.9995,-0.0412 -0.416,0.16646 -0.2924,0.29003 0.3151,0.31505 0.5497,0.0226 0.8577,-0.10061 0.6844,-0.27388 z m 293.03962,-2.91151 c -0.16647,-0.41599 -0.29006,-0.29243 -0.31506,0.31505 -0.0223,0.54971 0.10064,0.8577 0.27391,0.68442 0.17327,-0.17327 0.1918,-0.62304 0.0412,-0.99947 z m -28.68062,-24.50888 c -0.1664,-0.41599 -0.29,-0.29243 -0.3151,0.31505 -0.022,0.54971 0.1007,0.8577 0.274,0.68442 0.1732,-0.17327 0.1918,-0.62304 0.041,-0.99947 z m 40.57883,-6.15982 c -0.17723,-0.2868 -0.60175,-0.51787 -0.9433,-0.51348 -0.3732,0.005 -0.30889,0.20975 0.16111,0.51348 1.0018,0.64742 1.18232,0.64742 0.78219,0 z m -46.67113,-5.21465 c 0,-0.28681 -0.2485,-0.52147 -0.5523,-0.52147 -0.3037,0 -0.4072,0.23466 -0.2299,0.52147 0.1772,0.28681 0.4257,0.52146 0.5522,0.52146 0.1265,0 0.23,-0.23465 0.23,-0.52146 z m -4.9539,-5.21466 c -0.1773,-0.28681 -0.6018,-0.51787 -0.9434,-0.51348 -0.3732,0.005 -0.3088,0.20975 0.1612,0.51348 1.0018,0.64742 1.1823,0.64742 0.7822,0 z m -188.1536,-4.2695 c -0.1665,-0.41598 -0.2901,-0.29243 -0.3151,0.31506 -0.023,0.5497 0.1006,0.8577 0.2739,0.68442 0.1733,-0.17328 0.1918,-0.62305 0.041,-0.99948 z m -123.5634,-35.67693 c -0.1732,-0.17328 -0.623,-0.19181 -0.9994,-0.0412 -0.416,0.16647 -0.2925,0.29003 0.315,0.31505 0.5497,0.0226 0.8578,-0.1006 0.6844,-0.27388 z m 42.5104,-4.20203 c -0.3585,-0.14466 -0.9452,-0.14466 -1.3037,0 -0.3585,0.14466 -0.065,0.26302 0.6518,0.26302 0.7171,0 1.0104,-0.11836 0.6519,-0.26302 z m 52.668,-3.65026 c -0.3585,-0.14466 -0.9452,-0.14466 -1.3037,0 -0.3585,0.14466 -0.065,0.26302 0.6519,0.26302 0.717,0 1.0103,-0.11836 0.6518,-0.26302 z m 12.5152,-0.54413 c -0.6453,-0.12429 -1.7013,-0.12429 -2.3466,0 -0.6454,0.1243 -0.1174,0.22599 1.1733,0.22599 1.2906,0 1.8186,-0.10169 1.1733,-0.22599 z m 169.2216,-0.51173 c -0.4986,-0.13052 -1.4372,-0.13526 -2.0859,-0.0106 -0.6486,0.12473 -0.2407,0.23152 0.9065,0.23731 1.1473,0.006 1.678,-0.0963 1.1794,-0.22679 z"
         id="path3347" />
      <path
         id="path4185"
         style="opacity:1;fill:#ffffff;fill-opacity:1;stroke:none;stroke-width:5;stroke-linecap:square;stroke-linejoin:round;stroke-miterlimit:4;stroke-dasharray:none;stroke-dashoffset:4.9000001;stroke-opacity:1"
         d="m -498.55409,533.71792 c -4.94886,-0.67428 -8.83076,-1.51926 -9.75163,-2.12263 -0.91276,-0.59806 -1.02749,-1.03747 -1.77297,-6.79042 -0.30544,-2.35714 -0.64138,-4.88839 -0.74652,-5.625 -0.16726,-1.17183 -0.10021,-1.33928 0.53627,-1.33928 0.40009,0 2.06429,0.4964 3.69823,1.10312 9.84449,3.6555 21.47702,4.18917 24.6683,1.13173 2.09602,-2.00811 1.96996,-5.22117 -0.28244,-7.19879 -1.66424,-1.46123 -2.4365,-1.83555 -9.38718,-4.55002 -7.52676,-2.93946 -9.6902,-4.09532 -12.39454,-6.62201 -3.56124,-3.32731 -5.17304,-7.20363 -5.16483,-12.42121 0.0139,-8.85397 5.65098,-15.13388 15.43154,-17.19142 6.16997,-1.29799 17.42538,-1.22873 24.39603,0.15012 2.10388,0.41616 2.12496,0.43264 2.36467,1.84848 0.52406,3.09539 1.48764,11.6135 1.3314,11.76973 -0.0911,0.0911 -1.41242,-0.23026 -2.93624,-0.71416 -6.16787,-1.95866 -15.72674,-2.61213 -18.62735,-1.27342 -1.62559,0.75026 -2.82635,1.9336 -3.34115,3.29266 -0.28228,0.74523 -0.1976,1.18702 0.42264,2.20503 1.42596,2.34043 3.05109,3.25302 11.91966,6.6935 7.12842,2.7654 9.43815,4.04708 12.31493,6.83363 2.97728,2.8839 3.94156,5.15679 4.14694,9.77465 0.3116,7.00634 -1.11612,11.41171 -4.80014,14.81123 -3.54667,3.27279 -7.9871,5.1905 -14.44271,6.23744 -4.10745,0.66613 -12.68273,0.66469 -17.58291,-0.003 l 0,-1.1e-4 z m -69.70788,-30.72662 c -0.15595,-17.67434 -0.13405,-30.33891 0.0528,-30.52575 0.72241,-0.72241 9.47117,-1.11853 21.32203,-0.96541 11.10097,0.14343 12.45056,0.227 15.03366,0.93088 7.02263,1.91361 12.58954,5.93411 14.7681,10.66572 1.5875,3.44789 2.34937,8.21882 2.09778,13.1367 -0.2602,5.0861 -1.04771,7.50524 -3.83664,11.78561 -2.19079,3.36238 -4.44742,5.26318 -8.73828,7.36041 -4.41122,2.15606 -7.13523,2.7138 -14.66088,3.0018 -8.13755,0.31142 -7.28937,-0.26432 -7.28937,4.94796 0,2.42198 -0.10394,5.6332 -0.23098,7.13605 l -0.23097,2.73246 -9.01036,0 -9.01036,0 -0.26652,-30.20643 z m 25.58172,4.33491 c 4.52505,-0.95913 7.68305,-3.26797 9.31056,-6.80705 0.70571,-1.53458 0.8212,-2.36332 0.8212,-5.89286 0,-3.77634 -0.078,-4.25494 -0.96787,-5.94209 -1.17333,-2.22449 -3.36176,-4.1698 -5.59163,-4.97044 -0.95443,-0.34269 -3.27968,-0.67262 -5.49407,-0.77954 l -3.83929,-0.18539 0,10.35062 c 0,5.69285 -0.10325,11.33849 -0.22945,12.54588 l -0.22945,2.19525 1.92588,-0.006 c 1.05923,-0.004 2.99159,-0.23209 4.29412,-0.50817 l 0,1e-5 z m -58.17963,-4.45598 c 0.0534,-16.68012 0.20755,-30.43789 0.34254,-30.57282 0.13499,-0.13493 4.35374,-0.12718 9.375,0.0172 l 9.12956,0.26253 0,30.31029 0,30.31028 -9.4721,0 -9.47211,0 0.0971,-30.3275 z m -42.93861,0.008 0,-30.39504 9.05327,0 9.05328,0 0.23059,3.48215 c 0.12683,1.91517 0.23142,12.84375 0.23244,24.28571 l 0.002,20.80357 8.75,0 c 4.8125,0 8.75249,0.12054 8.75554,0.26786 0.003,0.14732 -0.50095,2.70995 -1.12001,5.69472 -0.80295,3.87141 -1.29077,5.50096 -1.70197,5.68539 -0.31703,0.14219 -7.9291,0.32876 -16.91571,0.4146 l -16.33928,0.15608 0,-30.39504 z m -30.53572,29.99528 -1.78571,-0.21175 -0.11435,-8.21428 c -0.0629,-4.51786 -0.003,-18.05804 0.13212,-30.08929 l 0.24648,-21.875 8.83718,0 8.83719,0 0.22712,1.65699 c 0.12491,0.91135 0.22712,14.57206 0.22712,30.35715 l 0,28.70015 -7.41072,-0.0561 c -4.07589,-0.0309 -8.21428,-0.15139 -9.19643,-0.26786 z m -72.06608,-29.94389 c 0.10853,-16.64732 0.26689,-30.34552 0.35191,-30.44044 0.26858,-0.29986 12.51329,-0.45583 15.29816,-0.19487 l 2.66601,0.24983 10e-4,5.05881 c 5.6e-4,2.78235 0.10632,8.07221 0.23504,11.75524 l 0.23403,6.69643 9.40782,0 9.40782,0 7.1e-4,-3.48214 c 3.6e-4,-1.91518 0.10648,-7.21875 0.23562,-11.78572 l 0.23489,-8.30357 9.00845,0 9.00845,0 0.21534,0.80357 c 0.11845,0.44197 0.21755,14.10268 0.22023,30.35715 l 0.005,29.55357 -9.28572,0 -9.28571,0 0,-11.94321 c 0,-6.56876 -0.12054,-12.00211 -0.26786,-12.0741 -0.14732,-0.072 -4.32422,-0.0349 -9.282,0.0823 -6.52765,0.15442 -9.13831,0.33731 -9.46428,0.663 -0.33808,0.3378 -0.47991,3.29052 -0.5697,11.86086 l -0.11955,11.4111 -9.22644,0 -9.22644,0 0.19733,-30.26786 z m -59.00535,29.94389 -1.78571,-0.21175 -0.0913,-30.2419 -0.0913,-30.24191 2.05559,-0.29381 c 1.13057,-0.16159 8.80558,-0.2938 17.05558,-0.2938 l 15,0 3.92857,1.35581 c 7.07898,2.44306 10.43771,5.05864 13.24596,10.31516 l 1.3969,2.61474 0.11564,7.45582 c 0.0963,6.21094 0.0163,7.76136 -0.47928,9.28572 -1.7258,5.30836 -7.24473,11.32621 -12.05807,13.14814 -1.0252,0.38805 -2.10508,0.90668 -2.39972,1.1525 -0.78962,0.65876 -5.43412,1.27152 -12.47359,1.64566 -3.42297,0.18192 -6.35439,0.46157 -6.51426,0.62144 -0.15988,0.15988 -0.39804,3.37801 -0.52926,7.15141 l -0.23858,6.86074 -7.17573,-0.0561 c -3.94664,-0.0309 -7.97929,-0.15139 -8.96144,-0.26786 z m 24.20778,-25.72752 c 6.83482,-1.74806 9.07388,-4.63309 9.44896,-12.17501 0.17696,-3.55811 0.13404,-3.87441 -0.7912,-5.8302 -2.13125,-4.50509 -4.71137,-5.96706 -10.98694,-6.22552 l -4.20002,-0.17297 0,11.9878 c 0,13.3968 -0.054,13.11025 2.46838,13.11025 0.74026,0 2.56763,-0.31246 4.06082,-0.69435 z m 17.57794,215.31674 c -10.19004,-0.58449 -28.64277,-4.54651 -39.81557,-8.54887 -2.19659,-0.78686 -4.30187,-1.43067 -4.6784,-1.43067 -0.37653,0 -0.6846,-0.0721 -0.6846,-0.16028 0,-0.96408 1.25089,-9.43765 1.82162,-12.33972 3.18743,-16.20751 8.64624,-31.79743 16.16215,-46.15781 2.06296,-3.94164 2.25916,-4.19307 3.26623,-4.18576 2.42556,0.0176 34.60643,4.30005 38.52753,5.12704 9.46613,1.99647 14.10348,5.93819 16.23402,13.7988 0.40091,1.47918 1.30745,6.76964 2.01454,11.75659 1.24089,8.75184 5.18819,39.5912 5.18819,40.53419 0,0.72346 -5.46446,1.27378 -16.25,1.63652 -10.8018,0.36329 -15.03028,0.35746 -21.78571,-0.03 l 0,10e-6 z m -19.81397,-81.31882 c 7.27419,-13.02277 23.01287,-30.77321 37.86248,-42.70215 4.08243,-3.27949 13.42007,-9.99541 16.84304,-12.11403 l 1.00131,-0.61975 -2.3e-4,1.69118 c -6e-4,4.64569 -3.50144,30.44205 -4.85779,35.79528 -2.2897,9.03692 -5.82631,12.57023 -14.78484,14.77106 -4.26337,1.04737 -33.05725,5.23198 -36.00075,5.23198 l -1.21029,0 1.14707,-2.05357 z m 64.1578,-43.03572 c -1.05399,-8.01877 -1.78075,-15.52318 -1.55924,-16.10043 0.24365,-0.63495 12.01634,-6.48852 17.57255,-8.73735 4.443,-1.79826 20.28799,-7.21579 21.1045,-7.21579 0.68668,0 0.76868,-1.00944 -0.91382,11.25 -1.83943,13.40292 -2.63101,16.56885 -4.74459,18.97609 -1.42371,1.62151 -2.40222,2.09579 -5.75111,2.78752 -3.56743,0.73687 -22.32641,3.41496 -23.92049,3.41496 l -1.21275,0 -0.57505,-4.375 z m 33.15617,42.37657 c -17.33736,-2.63603 -20.01735,-3.40835 -23.77951,-6.85283 -3.66733,-3.35764 -4.86176,-6.57235 -6.92899,-18.64874 -1.12992,-6.60084 -1.52904,-10.35714 -1.10047,-10.35714 0.0854,0 0.54145,0.14681 1.01338,0.32623 0.47194,0.17943 2.45115,0.50724 4.39825,0.72846 10.01489,1.13786 18.79565,2.64324 21.92799,3.75935 3.08294,1.09851 4.50227,3.17598 5.49508,8.0431 0.69437,3.40408 3.08141,20.71231 3.08141,22.34305 0,0.76625 -0.16795,1.21312 -0.44643,1.1878 -0.24553,-0.0223 -1.89285,-0.26049 -3.66071,-0.52928 z m -36.07336,78.56652 c 0.11062,-0.76424 0.58833,-4.68416 1.06157,-8.71094 2.71869,-23.13335 5.53198,-41.48314 6.84287,-44.63289 0.8952,-2.15096 3.14642,-5.71146 3.61535,-5.71802 0.24553,-0.004 0.44643,-0.22276 0.44643,-0.4874 0,-0.69729 4.53806,-2.96738 7.57332,-3.78842 4.61003,-1.24702 16.38427,-2.99462 42.96239,-6.37674 l 10.35714,-1.31796 0.10925,-1.50605 c 0.1282,-1.76736 0.19873,-1.73717 -4.7521,-2.03365 -3.45978,-0.20719 -23.99667,-2.91042 -24.98124,-3.28824 -0.36491,-0.14003 -0.51116,-0.44838 -0.37767,-0.79626 0.22141,-0.57698 0.52871,-2.60366 2.16614,-14.28585 1.78649,-12.7457 3.12415,-15.67379 7.77009,-17.0085 2.65831,-0.7637 11.07867,-2.17355 19.35125,-3.24005 7.91301,-1.02015 9.73012,-1.35724 10.27989,-1.90701 0.66747,-0.66747 -1.23656,-1.05589 -13.29197,-2.71152 -16.68592,-2.29156 -17.65272,-2.52888 -19.91606,-4.88883 -2.33711,-2.43687 -2.90816,-4.79643 -5.12862,-21.19119 -0.61189,-4.51785 -1.13873,-8.53199 -1.17074,-8.92029 -0.0794,-0.96254 1.29883,-1.37934 9.58059,-2.89742 20.16015,-3.69545 35.90347,-4.19911 54.95271,-1.75805 9.16934,1.175 23.08551,3.86925 24.84275,4.8097 0.33009,0.17666 1.87813,0.64859 3.44009,1.04874 5.98614,1.53356 16.31595,5.68975 27.12564,10.91399 9.84734,4.75913 18.10339,9.89719 27.85715,17.33656 2.75,2.09748 5.40178,4.02467 5.89285,4.28266 0.49107,0.25799 1.44561,1.1089 2.12118,1.89092 0.67558,0.78202 1.7604,1.64417 2.41072,1.91589 0.65031,0.27172 1.18239,0.6406 1.18239,0.81975 0,0.46906 14.88102,15.85437 15.69276,16.22456 0.37371,0.17042 0.77116,0.67524 0.88325,1.12181 0.11208,0.44658 1.3703,2.3118 2.79603,4.14493 13.05199,16.7816 22.66849,34.79704 28.92022,54.17878 0.78087,2.42089 1.35827,4.46313 1.28311,4.5383 -0.0752,0.0752 -4.87199,-2.24832 -10.65959,-5.16331 -10.283,-5.17914 -14.643,-6.95885 -24.89147,-10.16048 -15.81957,-4.94205 -35.76094,-7.57194 -50.41959,-6.64939 -17.16168,1.08008 -27.47256,2.85601 -41.64044,7.1721 -15.39605,4.69025 -27.73798,10.04746 -59.10714,25.65641 -24.21954,12.05138 -35.01678,16.78591 -45.30883,19.86766 -2.2855,0.68435 -4.47688,1.39481 -4.86974,1.5788 -0.88984,0.41675 -11.18478,2.77563 -13.49691,3.09255 l -1.70616,0.23385 0.20114,-1.3895 z m -16.42664,56.62756 c -17.29938,-0.80032 -34.73054,-4.43597 -49.77712,-10.3821 -5.85539,-2.31395 -15.57397,-6.85282 -17.72836,-8.27969 -2.65852,-1.76077 -2.96605,-2.3871 -3.36591,-6.85529 -0.64972,-7.26005 -0.88382,-16.25 -0.42317,-16.25 0.22966,0 1.65952,0.62333 3.17749,1.38518 14.24722,7.15048 34.87054,13.02296 50.4385,14.36233 11.28804,0.97115 26.88973,0.72319 37.66166,-0.59855 5.87661,-0.72108 14.98689,-2.78942 23.76691,-5.39589 7.25211,-2.15289 16.28984,-5.53328 23.75,-8.88323 2.55357,-1.14667 13.63225,-6.56367 24.61929,-12.03777 27.97333,-13.93723 37.29466,-18.39508 44.48785,-21.27593 13.13883,-5.26207 27.03338,-8.78078 40.41225,-10.23416 7.09665,-0.77092 24.88983,-1.09841 31.19489,-0.57415 14.28955,1.18815 32.1404,5.19043 45.08024,10.10728 8.64328,3.28427 19.56856,8.98768 20.48047,10.69159 0.51507,0.96242 2.02363,20.52373 1.61434,20.93302 -0.0865,0.0865 -2.62025,-0.96123 -5.63047,-2.32836 -13.05538,-5.92926 -23.92497,-9.27755 -37.88273,-11.66946 -12.2617,-2.10125 -21.75327,-2.65054 -34.73327,-2.01004 -11.76818,0.5807 -17.65159,1.32749 -27.32143,3.46792 -7.92122,1.75337 -23.88338,7.41536 -35.89286,12.73167 -6.31383,2.79499 -29.60309,14.56365 -36.25,18.31806 -1.16888,0.66023 -19.80775,9.39411 -23.03571,10.79418 -6.40879,2.77969 -17.16209,6.85831 -20.71429,7.85672 -12.64472,3.55403 -24.88563,5.54661 -37.77443,6.14894 -7.83485,0.36614 -7.75616,0.36625 -16.15414,-0.0222 l 0,-2e-5 z m 241.78571,40.35385 c -11.7686,-1.54246 -24.91071,-3.49866 -28.88691,-4.29981 -8.15254,-1.64261 -11.91131,-4.38788 -14.52492,-10.60844 -1.583,-3.76768 -4.86087,-24.81054 -7.29873,-46.85553 -0.51047,-4.61607 -1.00792,-8.66058 -1.10545,-8.9878 -0.0975,-0.32722 -0.0191,-0.69275 0.17435,-0.81229 0.19342,-0.11955 2.65085,-0.47541 5.46095,-0.79081 6.22168,-0.69832 26.47279,-0.80533 32.96643,-0.17421 7.62161,0.74075 16.26405,2.20332 23.57143,3.98902 7.22036,1.76444 20.29873,5.79685 21.20791,6.53897 0.37908,0.30942 0.44576,1.06737 0.28736,3.26645 -0.23599,3.27615 -2.34636,14.79613 -3.6323,19.82781 -1.20279,4.70631 -6.2099,19.3815 -8.21296,24.07114 -2.03391,4.76186 -6.84578,14.45046 -7.6007,15.30386 -0.76209,0.8615 -2.86586,0.78208 -12.40646,-0.46836 z m -50.00658,64.03979 c 1.66436,-14.36184 4.357,-33.48009 5.24383,-37.23214 0.20892,-0.88393 0.99267,-2.8993 1.74165,-4.4786 1.82214,-3.84213 4.21582,-6.25697 7.99999,-8.07071 2.49302,-1.19489 3.69089,-1.50247 8.94968,-2.29796 3.33929,-0.50513 8.96429,-1.40772 12.5,-2.00574 3.53572,-0.59803 7.95536,-1.22757 9.82143,-1.39898 3.79795,-0.34887 10.89266,-1.34469 11.64957,-1.63514 0.94938,-0.36431 0.48094,0.87098 -1.56028,4.11456 -9.46043,15.03303 -23.42469,30.56724 -37.82141,42.07356 -6.96277,5.56486 -17.08819,12.55481 -18.26232,12.60714 -0.33821,0.0151 -0.40708,-0.42525 -0.26214,-1.67599 z m -105.52913,26.38108 c -6.8771,-0.47455 -17.77269,-2.35351 -26.96429,-4.65002 -25.43749,-6.35554 -49.52239,-18.68643 -68.92857,-35.28979 -20.56255,-17.59271 -34.97128,-36.3936 -45.70836,-59.64146 -4.76957,-10.32705 -8.47577,-20.24836 -8.97786,-24.0333 l -0.24097,-1.81649 1.57074,0.95453 c 10.68146,6.49106 27.43984,13.4275 40.49931,16.76302 15.26097,3.8978 21.58965,4.66353 38.75,4.68848 14.29539,0.0208 16.6156,-0.15807 27.85714,-2.1473 3.83036,-0.6778 7.77052,-1.37283 8.75592,-1.54451 5.16377,-0.89965 20.15961,-5.66293 29.11303,-9.24746 12.9856,-5.19882 27.49534,-12.27411 43.73819,-21.32776 5.3166,-2.96343 19.47137,-10.09243 24.90125,-12.54143 11.74871,-5.29892 26.97068,-10.16247 34.62057,-11.06156 l 2.00395,-0.23552 -0.31,1.74081 c -0.1705,0.95745 -1.20271,8.65154 -2.2938,17.09796 -3.20798,24.83383 -4.77198,34.25681 -6.2347,37.56354 -2.49725,5.64545 -7.59601,8.94496 -16.1542,10.45371 -5.08468,0.89639 -19.14776,2.79658 -34.39021,4.64677 -15.45076,1.87546 -14.10829,1.59204 -14.10167,2.97717 0.003,0.62949 0.12354,1.32408 0.26785,1.54352 0.14432,0.21944 1.38739,0.51285 2.76239,0.65202 3.96234,0.40103 31.88385,4.06324 38.55057,5.05632 11.89777,1.77229 14.71667,2.60503 18.5079,5.46744 1.06426,0.80352 2.1213,1.46094 2.34899,1.46094 0.22768,0 0.41397,0.18067 0.41397,0.40148 0,0.22082 0.55505,1.63078 1.23344,3.13326 1.41838,3.1414 2.03335,5.32456 2.83328,10.05807 1.04211,6.16665 3.40396,22.95599 3.96701,28.1998 0.30543,2.84442 0.72647,6.02992 0.93566,7.07888 0.35467,1.77849 0.32395,1.96729 -0.45524,2.7976 -0.93588,0.9973 -10.03768,5.5355 -16.60494,8.27932 -14.97949,6.25846 -35.77342,11.34575 -51.31656,12.55474 -5.09842,0.39658 -25.03372,0.37546 -30.94979,-0.0328 z m 59.76346,-12.55965 c 0.10891,-0.44197 0.68871,-4.5 1.28843,-9.01786 1.66585,-12.54928 2.22682,-14.50649 4.67788,-16.32108 1.35573,-1.00368 3.83453,-1.54204 14.4488,-3.13804 5.30357,-0.79746 9.96429,-1.58954 10.35714,-1.76017 0.68137,-0.29594 0.67315,-0.32604 -0.17857,-0.65311 -0.49107,-0.18858 -3.625,-0.69896 -6.96428,-1.13416 -8.31758,-1.08403 -14.08449,-2.0697 -15.94032,-2.72447 -0.85636,-0.30214 -2.06737,-1.044 -2.69113,-1.64857 -1.46793,-1.42277 -1.89811,-3.2205 -3.68436,-15.39693 -1.38937,-9.47099 -1.55312,-10.25918 -2.13135,-10.25918 -0.5058,0 -0.78422,1.12282 -1.10698,4.46428 -0.54306,5.6221 -2.41202,17.17775 -3.01061,18.61447 -0.89005,2.13624 -2.93556,4.01564 -5.005,4.59855 -1.75896,0.49545 -7.54501,1.38958 -16.17421,2.49943 -4.08622,0.52555 -6.1489,0.99679 -6.1489,1.40478 0,0.38692 3.1363,0.9909 11.25,2.16651 12.56695,1.82085 14.08198,2.331 15.56698,5.24183 0.90934,1.78246 1.4583,4.63144 2.82923,14.68303 0.59518,4.36384 1.17017,8.21551 1.27775,8.55926 0.27717,0.88562 1.10441,0.77534 1.3395,-0.17857 z" />
    </g>
  </g>
</svg>
